<svg width="76" height="75" viewBox="0 0 76 75" fill="none" xmlns="http://www.w3.org/2000/svg">
  <path
    d="M6.75012 18.75C6.75012 17.0924 7.4086 15.5027 8.5807 14.3306C9.75281 13.1585 11.3425 12.5 13.0001 12.5H63.0001C64.6577 12.5 66.2474 13.1585 67.4195 14.3306C68.5916 15.5027 69.2501 17.0924 69.2501 18.75V56.25C69.2501 57.9076 68.5916 59.4973 67.4195 60.6694C66.2474 61.8415 64.6577 62.5 63.0001 62.5H13.0001C11.3425 62.5 9.75281 61.8415 8.5807 60.6694C7.4086 59.4973 6.75012 57.9076 6.75012 56.25V18.75ZM17.747 18.75L38.0001 36.4719L58.2533 18.75H17.747ZM63.0001 22.9031L40.0595 42.9781C39.4896 43.4774 38.7578 43.7527 38.0001 43.7527C37.2425 43.7527 36.5106 43.4774 35.9407 42.9781L13.0001 22.9031V56.25H63.0001V22.9031Z"
    fill="#D1D1D1" />
</svg>
  