<svg width="75" height="75" viewBox="0 0 75 75" fill="none" xmlns="http://www.w3.org/2000/svg">
  <path
    d="M37.5001 22.478C29.1871 22.478 22.4781 29.187 22.4781 37.5C22.4781 45.813 29.1871 52.5219 37.5001 52.5219C45.8131 52.5219 52.5221 45.813 52.5221 37.5C52.5221 29.187 45.8131 22.478 37.5001 22.478ZM37.5001 47.2632C32.1241 47.2632 27.7369 42.876 27.7369 37.5C27.7369 32.124 32.1241 27.7368 37.5001 27.7368C42.8761 27.7368 47.2633 32.124 47.2633 37.5C47.2633 42.876 42.8761 47.2632 37.5001 47.2632ZM53.1373 18.3618C51.1964 18.3618 49.629 19.9292 49.629 21.8701C49.629 23.811 51.1964 25.3784 53.1373 25.3784C55.0782 25.3784 56.6456 23.8183 56.6456 21.8701C56.6462 21.4092 56.5559 20.9528 56.3797 20.5268C56.2036 20.1009 55.9452 19.714 55.6194 19.3881C55.2935 19.0622 54.9065 18.8038 54.4806 18.6277C54.0547 18.4516 53.5982 18.3612 53.1373 18.3618ZM66.7823 37.5C66.7823 33.457 66.819 29.4507 66.5919 25.415C66.3649 20.7275 65.2955 16.5674 61.8678 13.1396C58.4327 9.70457 54.2799 8.64256 49.5924 8.41551C45.5494 8.18846 41.5431 8.22508 37.5074 8.22508C33.4645 8.22508 29.4581 8.18846 25.4225 8.41551C20.735 8.64256 16.5748 9.71189 13.1471 13.1396C9.71203 16.5747 8.65002 20.7275 8.42297 25.415C8.19592 29.458 8.23254 33.4643 8.23254 37.5C8.23254 41.5356 8.19592 45.5493 8.42297 49.5849C8.65002 54.2724 9.71936 58.4326 13.1471 61.8603C16.5822 65.2954 20.735 66.3574 25.4225 66.5844C29.4655 66.8115 33.4718 66.7749 37.5074 66.7749C41.5504 66.7749 45.5568 66.8115 49.5924 66.5844C54.2799 66.3574 58.4401 65.2881 61.8678 61.8603C65.3029 58.4253 66.3649 54.2724 66.5919 49.5849C66.8263 45.5493 66.7823 41.5429 66.7823 37.5ZM60.337 54.7705C59.8024 56.1035 59.1578 57.0996 58.1251 58.125C57.0924 59.1577 56.1036 59.8022 54.7706 60.3369C50.9181 61.8677 41.7701 61.5234 37.5001 61.5234C33.2301 61.5234 24.0748 61.8677 20.2223 60.3442C18.8893 59.8096 17.8932 59.165 16.8678 58.1323C15.8351 57.0996 15.1905 56.1108 14.6559 54.7778C13.1324 50.9179 13.4767 41.77 13.4767 37.5C13.4767 33.23 13.1324 24.0747 14.6559 20.2221C15.1905 18.8891 15.8351 17.893 16.8678 16.8677C17.9005 15.8423 18.8893 15.1904 20.2223 14.6557C24.0748 13.1323 33.2301 13.4765 37.5001 13.4765C41.7701 13.4765 50.9254 13.1323 54.778 14.6557C56.111 15.1904 57.1071 15.8349 58.1324 16.8677C59.1652 17.9004 59.8097 18.8891 60.3444 20.2221C61.8678 24.0747 61.5236 33.23 61.5236 37.5C61.5236 41.77 61.8678 50.9179 60.337 54.7705Z"
    fill="#D1D1D1" />
</svg>