<svg width="76" height="75" viewBox="0 0 76 75" fill="none" xmlns="http://www.w3.org/2000/svg">
<g clip-path="url(#clip0_102_19)">
<path d="M38.0001 6.25C55.2595 6.25 69.2501 20.2406 69.2501 37.5C69.2501 54.7594 55.2595 68.75 38.0001 68.75C32.6812 68.7578 27.4491 67.4022 22.8032 64.8125L21.8501 64.2563L12.3751 67.0438C11.8595 67.1957 11.3136 67.2134 10.7892 67.0953C10.2648 66.9771 9.77931 66.727 9.37868 66.3686C8.97804 66.0102 8.67557 65.5555 8.49994 65.0474C8.32432 64.5394 8.28135 63.9949 8.37512 63.4656L8.45637 63.125L11.2439 53.65C8.29687 48.7791 6.74255 43.193 6.75012 37.5C6.75012 20.2406 20.7407 6.25 38.0001 6.25ZM38.0001 12.5C33.524 12.4992 29.1297 13.7002 25.2762 15.9775C21.4226 18.2549 18.2512 21.5251 16.0931 25.4467C13.935 29.3682 12.8694 33.7973 13.0075 38.2713C13.1456 42.7454 14.4824 47.1003 16.8782 50.8812C17.497 51.8562 17.7626 53.0562 17.5532 54.2469L17.4314 54.7562L16.0532 59.4469L20.7439 58.0688C22.097 57.6688 23.5032 57.9125 24.6189 58.6219C27.8949 60.6962 31.6085 61.9801 35.4662 62.372C39.3239 62.7639 43.2198 62.2531 46.8461 60.88C50.4723 59.5068 53.7295 57.309 56.36 54.4603C58.9906 51.6115 60.9225 48.1899 62.0029 44.4659C63.0833 40.742 63.2827 36.8177 62.5853 33.0035C61.8879 29.1892 60.3127 25.5894 57.9845 22.4887C55.6562 19.388 52.6386 16.8714 49.1702 15.1378C45.7018 13.4042 41.8777 12.5011 38.0001 12.5ZM28.9439 22.45C29.2899 22.3002 29.6689 22.243 30.0437 22.2841C30.4184 22.3252 30.7761 22.4631 31.0814 22.6844C32.6564 23.8344 33.9064 25.3781 34.9814 26.8844L36.0032 28.3656L36.4814 29.0688C36.7572 29.4721 36.8926 29.9551 36.8667 30.4431C36.8407 30.9311 36.6548 31.397 36.3376 31.7688L36.1032 32.0062L33.2157 34.15C33.0768 34.2506 32.979 34.3982 32.9405 34.5654C32.902 34.7326 32.9254 34.9081 33.0064 35.0594C33.6626 36.2469 34.822 38.0187 36.1532 39.35C37.4876 40.6813 39.3408 41.9188 40.6095 42.6469C40.8845 42.8031 41.2157 42.7531 41.4407 42.55L41.5595 42.4094L43.4376 39.55C43.7824 39.0907 44.2916 38.7827 44.8585 38.6907C45.4254 38.5986 46.0059 38.7296 46.4783 39.0563L48.1751 40.2406C49.8626 41.4437 51.4845 42.7375 52.7689 44.3781C53.0077 44.6858 53.1595 45.0521 53.2084 45.4385C53.2574 45.825 53.2016 46.2175 53.047 46.575C51.8095 49.4625 48.6751 51.9219 45.4189 51.8031L44.922 51.7719L44.3251 51.7156C44.2125 51.7023 44.1 51.6877 43.9876 51.6719L43.2439 51.5469C40.3564 51.0031 35.7282 49.3656 30.9314 44.5719C26.1376 39.775 24.5001 35.1469 23.9564 32.2594L23.8314 31.5156L23.7532 30.8656L23.7126 30.3187C23.7077 30.2407 23.7035 30.1625 23.7001 30.0844C23.5814 26.8219 26.0532 23.6875 28.9439 22.45Z" fill="#D1D1D1"/>
</g>
<defs>
<clipPath id="clip0_102_19">
<rect width="75" height="75" fill="white" transform="translate(0.500122)"/>
</clipPath>
</defs>
</svg>